# xmcd
#
# Track frame offsets:
#	150
#	14310
#	28845
#	42965
#	56110
#	66040
#	82960
#	103580
#	118240
#	130020
#	145750
#	161190
#
# Disc length: 2317 seconds
#
# Revision: 1
# Processed by: cddbd v1.5.1PL0 Copyright (c) Steve Scherf et al.
# Submitted via: audiograbber 1.82.02
#
DISCID=a3090b0c
DTITLE=Rick and Thel Carey - Special On My Mind
DYEAR=1900
DGENRE=Country
TTITLE0=Mary Jane Malone
TTITLE1=Bordertown
TTITLE2=Come On The Day
TTITLE3=Riverboat Lovesong
TTITLE4=Your Country Way
TTITLE5=A Little Boy's Christmas Prayer
TTITLE6=Don Pedro Diego
TTITLE7=The Homestead Garden
TTITLE8=I Hop You're Satisfied
TTITLE9=Two Legged Tiger
TTITLE10=Special On My Mind
TTITLE11=If I Hadn't Married You
EXTD=
EXTT0=
EXTT1=
EXTT2=
EXTT3=
EXTT4=
EXTT5=
EXTT6=
EXTT7=
EXTT8=
EXTT9=
EXTT10=
EXTT11=
PLAYORDER=
